<?xml version="1.0" encoding="UTF-8" standalone="no"?>
<svg
   xmlns:dc="http://purl.org/dc/elements/1.1/"
   xmlns:cc="http://creativecommons.org/ns#"
   xmlns:rdf="http://www.w3.org/1999/02/22-rdf-syntax-ns#"
   xmlns:svg="http://www.w3.org/2000/svg"
   xmlns="http://www.w3.org/2000/svg"
   xmlns:sodipodi="http://sodipodi.sourceforge.net/DTD/sodipodi-0.dtd"
   xmlns:inkscape="http://www.inkscape.org/namespaces/inkscape"
   version="1.1"
   id="svg833"
   width="194"
   height="192"
   viewBox="0 0 194 192"
   sodipodi:docname="delogocolored.svg"
   inkscape:version="1.0.2-2 (e86c870879, 2021-01-15)">
  <metadata
     id="metadata839">
    <rdf:RDF>
      <cc:Work
         rdf:about="">
        <dc:format>image/svg+xml</dc:format>
        <dc:type
           rdf:resource="http://purl.org/dc/dcmitype/StillImage" />
        <dc:title></dc:title>
      </cc:Work>
    </rdf:RDF>
  </metadata>
  <defs
     id="defs837" />
  <sodipodi:namedview
     pagecolor="#ffffff"
     bordercolor="#666666"
     borderopacity="1"
     objecttolerance="10"
     gridtolerance="10"
     guidetolerance="10"
     inkscape:pageopacity="0"
     inkscape:pageshadow="2"
     inkscape:window-width="1920"
     inkscape:window-height="1017"
     id="namedview835"
     showgrid="false"
     inkscape:zoom="3.5104167"
     inkscape:cx="111.42686"
     inkscape:cy="87.096633"
     inkscape:window-x="1928"
     inkscape:window-y="1058"
     inkscape:window-maximized="1"
     inkscape:current-layer="g841"
     inkscape:document-rotation="0" />
  <g
     inkscape:groupmode="layer"
     inkscape:label="Image"
     id="g841">
    <path
       style="fill:#00dffe;fill-opacity:1"
       d="m 99.854603,191.92855 c -13.9797,0.30435 -17.60098,0.062 -23.7079,-1.58637 -3.96435,-1.07008 -10.33953,-3.26136 -14.16708,-4.86953 -3.82755,-1.60816 -10.03399,-4.97437 -13.792099,-7.48046 -3.758109,-2.5061 -7.806146,-5.4714 -8.995639,-6.58956 -1.869335,-1.75724 -2.326819,-1.8353 -3.372445,-0.5754 -0.665352,0.8017 -2.63963,1.45764 -4.387286,1.45764 -1.747655,0 -3.717555,-0.54 -4.377555,-1.2 -0.66,-0.66 -1.2,-2.08707 -1.2,-3.17126 0,-1.08419 0.737068,-2.78571 1.637929,-3.78115 1.535675,-1.6969 1.325088,-2.26368 -3.37323,-9.07874 -2.756138,-3.99787 -6.579945,-10.41885 -8.497351,-14.26885 -1.917405,-3.85 -4.437719,-9.925 -5.600697,-13.5 -1.1629778,-3.575 -2.8054248,-10.52045 -3.6498818,-15.43434 -1.066273,-6.20463 -2.143592,-9.50098 -3.526072,-10.78895 -1.094883,-1.02005 -1.99069697,-3.045591 -1.99069697,-4.501221 0,-1.45562 0.86880097,-3.57559 1.93066797,-4.71104 1.255618,-1.34263 2.480941,-5.24569 3.504471,-11.16292 0.865591,-5.00415 2.507654,-11.97915 3.649027,-15.499996 1.1413728,-3.520845 3.5944568,-9.587495 5.4512968,-13.481444 1.856841,-3.893948 5.458603,-9.908823 8.003917,-13.366387 3.323288,-4.514367 4.322382,-6.591944 3.544232,-7.370094 -0.595986,-0.595986 -1.083612,-2.578259 -1.083612,-4.405051 0,-2.586495 0.562096,-3.577547 2.54029,-4.478872 1.751877,-0.798209 3.381285,-0.853684 5.25,-0.178744 2.409989,0.870437 3.428676,0.429404 9.20971,-3.987282 3.575,-2.731284 10.615614,-6.922622 15.645814,-9.314083 5.0302,-2.391461 12.63969,-5.241692 16.90997,-6.333845 6.01998,-1.53965398 11.07272,-1.98573498 22.49231,-1.98573498 12.748097,0 15.889547,0.336553 23.366667,2.50333798 4.75117,1.376836 12.56401,4.477776 17.36187,6.890979 4.79785,2.413203 11.3695,6.446153 14.60367,8.962113 4.66207,3.626771 6.25403,4.374457 7.68426,3.60902 0.99217,-0.530997 2.72317,-0.96545 3.84665,-0.96545 1.12347,0 2.78155,1.127655 3.68461,2.505901 1.36385,2.081499 1.43916,2.995442 0.44464,5.396426 -1.09894,2.653064 -0.87145,3.371406 2.76917,8.744099 2.18156,3.219466 5.81467,9.551746 8.07357,14.071735 2.25891,4.519988 5.18675,11.944988 6.50631,16.500002 1.31956,4.55501 2.71873,11.26851 3.10925,14.91889 0.60764,5.67988 1.05553,6.79447 3.10564,7.72856 1.92535,0.87725 2.3956,1.8494 2.3956,4.95243 0,3.1479 -0.46169,4.071291 -2.5,5.000011 -1.84596,0.84107 -2.5,1.91242 -2.5,4.09514 0,1.62583 -0.69212,6.24798 -1.53805,10.27143 -0.84593,4.02346 -2.81411,11.01856 -4.37374,15.54467 -1.55962,4.52611 -4.69078,11.35189 -6.95812,15.1684 -2.26734,3.81651 -5.66844,8.96447 -7.55799,11.43992 -2.48771,3.25907 -3.06657,4.6424 -2.09812,5.01403 0.73558,0.28227 1.64466,1.91206 2.02018,3.62175 0.42308,1.92631 0.22222,3.66342 -0.52815,4.56757 -0.666,0.80247 -2.53538,1.45904 -4.1542,1.45904 -1.61881,0 -3.80052,-0.45878 -4.84825,-1.0195 -1.55585,-0.83267 -3.05574,-0.17119 -8.18426,3.60939 -3.45361,2.54589 -9.6543,6.32744 -13.7793,8.40344 -4.125,2.076 -10.65,4.79077 -14.5,6.03283 -5.82566,1.87943 -9.7681,2.31855 -23.499997,2.61752 z m -7.25,-3.76844 c 0.6875,0.0686 1.25,-0.60526 1.25,-1.4975 0,-0.89224 -3.1785,-11.24224 -7.06334,-23 -3.88483,-11.75776 -7.33266,-21.37774 -7.66185,-21.37774 -0.32919,0 -8.51319,4.11748 -18.18667,9.14995 -9.67348,5.03247 -18.615024,9.81865 -19.8701,10.63595 -2.132719,1.38881 -2.174439,1.6048 -0.637932,3.30262 0.904214,0.99915 4.856094,4.0297 8.781956,6.73457 3.925866,2.70486 9.399286,6.05753 12.163156,7.45036 2.76387,1.39284 8.30562,3.52883 12.31499,4.74664 4.00938,1.21781 9.62303,2.55534 12.47478,2.9723 2.85175,0.41695 5.74751,0.81424 6.43501,0.88285 z m 13.008347,-0.41065 c 2.60791,-0.3605 7.44165,-1.29994 10.74165,-2.08765 3.3,-0.78771 8.925,-2.63367 12.5,-4.10213 3.575,-1.46846 8.71881,-3.9673 11.4307,-5.55297 2.71188,-1.58566 7.61084,-4.94536 10.88658,-7.46598 5.5823,-4.29548 5.83755,-4.66983 4.0693,-5.968 -1.03762,-0.76177 -9.60679,-5.41318 -19.0426,-10.33645 -9.43582,-4.92328 -17.84099,-8.95141 -18.67816,-8.95141 -0.92216,0 -2.29003,2.06936 -3.47032,5.25 -1.0715,2.8875 -4.27604,12.45 -7.12119,21.25 -2.84516,8.8 -5.37204,16.58951 -5.61531,17.31002 -0.34305,1.01608 0.62161,1.16295 4.29935,0.65457 z m -2.03773,-17.47061 c 2.91555,-9.07169 6.4668,-19.75648 7.89165,-23.74398 1.97765,-5.53453 3.03857,-7.25 4.48372,-7.25 1.0412,0 11.15472,4.725 22.47449,10.5 11.31977,5.775 20.77725,10.5 21.01662,10.5 0.23937,0 -1.36955,-3.58952 -3.57539,-7.97671 -2.20584,-4.38719 -6.93586,-14.29714 -10.51116,-22.0221 -3.5753,-7.72497 -6.50055,-14.66159 -6.50055,-15.41471 0,-0.75313 1.86166,-2.11421 4.13703,-3.02463 2.27536,-0.91042 11.61286,-4.38486 20.75,-7.72098 9.13713,-3.33612 17.47352,-6.520021 18.52531,-7.075341 1.73734,-0.91727 1.60009,-1.14112 -1.5,-2.44626 -1.87679,-0.79012 -9.48734,-3.62086 -16.91234,-6.29052 -7.425,-2.66966 -16.0875,-5.8256 -19.25,-7.01319 -3.1625,-1.18759 -5.75,-2.62309 -5.75,-3.19 0,-0.56691 2.32004,-6.27208 5.15565,-12.678155 2.8356,-6.406074 7.53418,-16.709908 10.44127,-22.897408 2.90709,-6.1875 5.15457,-11.25 4.9944,-11.25 -0.16016,0 -4.52123,2.300811 -9.69126,5.112913 -5.17003,2.812103 -15.13113,7.987103 -22.13578,11.5 -7.00465,3.512898 -12.92971,6.387087 -13.1668,6.387087 -0.2371,0 -4.14518,-11.1375 -8.68463,-24.75 -8.253547,-24.75 -8.253547,-24.75 -16.317897,-0.5 -6.64357,19.977648 -8.38904,24.25 -9.90734,24.25 -1.01365,0 -11.08861,-4.744435 -22.38879,-10.543188 -11.300179,-5.798753 -20.650881,-10.411253 -20.779336,-10.25 -0.128455,0.161253 4.415914,10.193188 10.098599,22.293188 5.682687,12.1 10.343347,22.529793 10.357037,23.177313 0.0137,0.64752 -3.46262,2.50872 -7.725124,4.13599 -4.2625,1.62727 -14.821362,5.37247 -23.464138,8.32268 -13.081792,4.46547 -16.0368578,5.16464 -17.6406628,4.17383 -1.520407,-0.9393 -2.318479,-0.89948 -3.785862,0.18888 -1.759099,1.30473 -1.766585,1.47319 -0.138849,3.12496 1.462084,1.48367 2.074827,1.55626 4.079709,0.48328 2.0670448,-1.10625 4.2400758,-0.63449 17.5464858,3.809331 8.352996,2.78957 18.779627,6.45731 23.170291,8.15053 4.39066,1.69322 7.98303,3.55174 7.98303,4.13003 0,0.5783 -1.64202,4.7081 -3.64893,9.17732 -2.006906,4.46922 -6.943922,14.77021 -10.971144,22.89107 -7.322222,14.76522 -7.322222,14.76522 15.682624,3.11704 12.65267,-6.4065 23.21174,-11.44129 23.46459,-11.18844 0.25286,0.25286 3.80903,10.65928 7.90259,23.12538 4.09357,12.4661 7.79093,23.22884 8.21636,23.9172 0.46451,0.75158 2.891167,-5.33748 6.074527,-15.24241 z m -5.720617,-2.99398 c -0.41531,0 -1.26353,-0.6126 -1.88492,-1.36133 -0.62139,-0.74874 -3.58647,-8.96124 -6.58907,-18.25 -5.45926,-16.88867 -5.45926,-16.88867 -10.01511,-19.74471 -2.50572,-1.57083 -6.11147,-4.72083 -8.01278,-7 -1.9013,-2.27918 -4.47868,-5.40189 -5.72752,-6.93937 -1.71528,-2.11173 -6.30602,-4.31286 -18.770604,-9 -14.083739,-5.295991 -16.546764,-6.533851 -16.81934,-8.452981 -0.225291,-1.58622 0.363728,-2.5275 2,-3.19611 1.275637,-0.52125 9.208337,-3.60483 17.628223,-6.8524 15.047411,-5.80382 15.365851,-5.98927 18.644311,-10.8575 1.83449,-2.72406 5.01338,-6.42609 7.06421,-8.226737 2.05082,-1.80065 4.76377,-3.745485 6.02877,-4.321856 1.85708,-0.846142 3.20257,-3.864198 6.98703,-15.672478 2.57787,-8.043493 5.54663,-16.312032 6.59724,-18.374532 1.05061,-2.0625 2.54811,-3.75 3.32778,-3.75 0.95251,0 3.385677,5.9873 7.416577,18.25 5.07127,15.427714 6.41449,18.506887 8.68576,19.91113 1.47773,0.913621 4.44403,3.326299 6.59179,5.361503 2.14775,2.03521 5.19465,5.57482 6.77089,7.86579 2.72492,3.96054 3.70319,4.47477 19.8899,10.45513 10.01569,3.7004 17.27048,6.93197 17.62269,7.84983 0.32927,0.85806 0.0984,2.16286 -0.51297,2.89956 -0.6114,0.7367 -6.80666,3.545461 -13.76725,6.241701 -6.96059,2.69623 -14.33757,5.44451 -16.39329,6.10729 -2.79408,0.90082 -4.77965,2.69048 -7.86505,7.08902 -2.29247,3.26814 -6.52014,7.53194 -9.5096,9.59086 -5.38223,3.70688 -5.38223,3.70688 -10.91401,20.72509 -3.04248,9.36002 -6.02381,17.61106 -6.625167,18.33565 -0.60136,0.7246 -1.43318,1.31745 -1.84849,1.31745 z m 0.0204,-9.02156 c 0.28621,0.0119 3.099477,-8.19094 6.251707,-18.22844 3.15222,-10.0375 5.73055,-18.80593 5.72961,-19.48541 -10e-4,-0.88147 -1.44478,-0.6666 -5.03872,0.75 -2.77036,1.09198 -5.807867,1.97473 -6.750007,1.96167 -0.94214,-0.013 -4.33468,-1.10172 -7.53898,-2.41925 -3.36185,-1.38232 -5.65963,-1.90098 -5.43265,-1.22627 0.21635,0.64309 3.06305,9.59706 6.32601,19.8977 3.26295,10.30064 6.16682,18.73814 6.45303,18.75 z m -16.32701,-34.33848 c 0.27827,-0.27827 -0.0151,-2.08487 -0.65202,-4.01465 -0.88716,-2.68812 -1.97854,-3.77951 -4.66666,-4.66667 -1.92979,-0.63688 -3.78124,-0.88543 -4.11435,-0.55232 -0.33311,0.33311 1.53921,2.66079 4.16071,5.17263 2.6215,2.51183 4.99404,4.33929 5.27232,4.06101 z m 33.179267,-0.63996 c 0.47995,0 2.72995,-2.01495 5,-4.47766 2.27005,-2.46271 4.12736,-4.67822 4.12736,-4.92335 0,-0.24514 -1.4625,0.26068 -3.25,1.12404 -1.7875,0.86335 -4.0375,2.24861 -5,3.07834 -0.9625,0.82973 -1.75,2.33886 -1.75,3.35362 0,1.01475 0.39269,1.84501 0.87264,1.84501 z m -15.872637,-4.62662 c 1.374997,-0.28523 14.848717,-5.22214 29.941587,-10.97091 15.09287,-5.74878 27.65537,-10.666101 27.91667,-10.927401 0.26129,-0.26129 0.27054,-0.6796 0.0206,-0.92959 -0.24999,-0.24998 -13.67078,-5.47441 -29.824,-11.60983 -29.369517,-11.15532 -29.369517,-11.15532 -46.462187,-4.65581 -9.40097,3.57473 -22.80437,8.67495 -29.785343,11.33383 -6.980968,2.65888 -12.463583,5.07102 -12.183588,5.36032 0.279995,0.28931 13.416696,5.564211 29.192671,11.722001 19.57049,7.63891 29.47786,11.03123 31.18359,10.67739 z M 71.732173,79.284869 c 0.61735,0 1.12245,-0.39891 1.12245,-0.88646 0,-0.48755 1.9125,-1.1747 4.25,-1.52699 4.15322,-0.62596 4.25105,-0.72933 4.29614,-4.53963 0.0381,-3.22028 -0.22303,-3.75284 -1.5,-3.05906 -0.85038,0.46201 -2.69365,2.11625 -4.09615,3.67608 -1.40251,1.55983 -3.14511,3.62356 -3.87245,4.58606 -0.88804,1.17515 -0.95373,1.75 -0.19999,1.75 z m 51.122447,0 c 0.55,0 1,-0.35442 1,-0.78759 0,-0.43318 -2.25,-3.00376 -5,-5.71241 -5,-4.92482 -5,-4.92482 -5,-1.24759 0,2.6121 0.56026,3.97706 1.93426,4.7124 1.06384,0.56935 2.86384,1.03519 4,1.03519 1.13616,0 2.06574,0.45 2.06574,1 0,0.55 0.45,1 1,1 z m -37.587677,-6 c 0.19226,0 3.21592,-1.0789 6.71925,-2.39755 6.36968,-2.39754 6.36968,-2.39754 10.869057,-0.0452 2.47465,1.2938 5.28687,2.37269 6.24937,2.39755 0.9625,0.0249 1.75,-0.13381 1.75,-0.35257 0,-0.21877 -2.74455,-8.43127 -6.09899,-18.250004 -3.35445,-9.818733 -6.450767,-18.487872 -6.880707,-19.264753 -0.50285,-0.908644 -2.27119,3.371962 -4.95725,12 -2.29656,7.376884 -4.86016,15.662514 -5.69691,18.412514 -0.83674,2.750003 -1.6973,5.562503 -1.91236,6.250003 -0.21506,0.6875 -0.23371,1.25 -0.0415,1.25 z M 32.604619,169.53057 c 0.6875,-0.25282 1.25,-1.27403 1.25,-2.26936 0,-0.99532 -0.5625,-2.00588 -1.25,-2.2457 -0.6875,-0.23981 -1.8125,-0.22917 -2.5,0.0237 -0.6875,0.25282 -1.25,1.27403 -1.25,2.26936 0,0.99532 0.5625,2.00588 1.25,2.2457 0.6875,0.23981 1.8125,0.22917 2.5,-0.0237 z m 131.083331,-0.2457 c 1.00834,0 2.12943,-0.2961 2.49133,-0.65799 0.36189,-0.3619 0.15679,-1.2619 -0.45578,-2 -0.61257,-0.73811 -1.73367,-1.34201 -2.49132,-1.34201 -0.75766,0 -1.37756,0.9 -1.37756,2 0,1.27273 0.66667,2 1.83333,2 z m -130.463034,-11 c 0.148084,0 4.702031,-9.46332 10.119881,-21.02959 6.425931,-13.71838 9.510286,-21.36994 8.871676,-22.00855 -0.538424,-0.53843 -10.072226,-4.19299 -21.186224,-8.12126 -11.113998,-3.92826 -20.461766,-6.8878 -20.772817,-6.57675 -0.3110508,0.31105 -0.04335,4.09144 0.594886,8.40085 0.638237,4.30942 2.50004,11.8853 4.137339,16.8353 1.6373,4.95 4.356674,11.475 6.043055,14.5 1.68638,3.025 5.058929,8.3125 7.494553,11.75 2.435623,3.4375 4.549566,6.25 4.697651,6.25 z M 164.0686,156.11379 c 1.01292,-1.28091 4.0883,-5.925 6.83419,-10.3202 2.7459,-4.39521 6.39186,-11.59521 8.10214,-16 1.71028,-4.4048 3.92114,-12.7262 4.91302,-18.492 0.99188,-5.76581 1.61433,-10.67237 1.38323,-10.90348 -0.23111,-0.2311 -9.76363,2.83336 -21.18339,6.80992 -11.41975,3.97656 -21.06879,7.53312 -21.44231,7.90347 -0.37351,0.37036 3.87277,10.27138 9.43617,22.00229 10.11529,21.32892 10.11529,21.32892 11.95695,19 z m 25.72698,-57.828921 c 1.06754,0 2.24579,-0.49319 2.61833,-1.09596 0.37254,-0.60278 -0.008,-1.78103 -0.84502,-2.61833 -0.8373,-0.8373 -2.01555,-1.21756 -2.61833,-0.84502 -0.60278,0.37254 -1.09596,1.55078 -1.09596,2.61832 0,1.25465 0.68634,1.94099 1.94098,1.94099 z m -179.183266,-6 c 0.558457,0 9.952851,-3.17142 20.876432,-7.0476 10.92358,-3.87618 20.235946,-7.4225 20.694147,-7.8807 0.4582,-0.4582 -3.548913,-10.111776 -8.904694,-21.452395 C 37.922417,44.563555 33.183843,35.284866 32.748033,35.284866 c -0.43581,0 -2.849588,2.882916 -5.363951,6.40648 -2.514363,3.523563 -6.356966,10.216416 -8.539117,14.873006 -2.182152,4.65659 -4.852356,12.236177 -5.933788,16.843517 -1.081431,4.60735 -2.269539,10.7395 -2.640239,13.627 -0.4273628,3.32886 -0.3024428,5.25 0.341376,5.25 z m 174.397126,-0.0677 c 0.36017,0.0372 0.42998,-1.84478 0.15514,-4.18228 -0.27484,-2.3375 -1.35467,-7.98814 -2.39963,-12.55698 -1.04495,-4.56884 -3.31098,-11.696515 -5.03561,-15.839276 -1.72464,-4.142761 -5.80766,-11.601451 -9.07337,-16.574867 -3.28727,-5.006221 -6.3094,-8.648942 -6.77045,-8.160727 -0.45802,0.485016 -5.13969,10.097005 -10.40371,21.359976 -5.26403,11.26297 -9.24611,20.802584 -8.84908,21.199134 0.39703,0.39655 9.94687,3.86342 21.22187,7.70415 11.275,3.84074 20.79468,7.01363 21.15484,7.05087 z M 79.042323,49.668849 c 0.43085,-0.26628 3.6787,-9.574109 7.21745,-20.684064 3.53875,-11.109956 6.74412,-21.270841 7.12305,-22.579747 0.67606,-2.335245 0.59902,-2.366341 -4.11209,-1.659867 -2.64057,0.395979 -8.20194,1.569379 -12.35859,2.607555 -4.15665,1.038176 -12.09782,4.159687 -17.64705,6.936692 -5.60531,2.805072 -12.494147,7.21209 -15.499998,9.915866 -2.975773,2.676722 -5.185496,5.079703 -4.910496,5.339957 0.275,0.260255 9.25348,5.003468 19.952174,10.540473 10.6987,5.537005 19.80469,9.849416 20.23555,9.583135 z m 38.586857,-0.127722 c 0.90242,-0.346291 9.75981,-4.858689 19.68309,-10.027551 9.92328,-5.168862 18.42657,-9.766593 18.89619,-10.217181 0.46962,-0.450588 -1.78038,-2.894221 -5,-5.430296 -3.21962,-2.536076 -9.67886,-6.572767 -14.35386,-8.970425 -4.675,-2.397658 -11.32425,-5.319398 -14.77612,-6.492755 -3.45187,-1.173357 -9.4002,-2.669096 -13.21852,-3.323865 -3.81831,-0.654769 -7.174,-0.958884 -7.45707,-0.675813 -0.28307,0.283072 2.88287,10.696562 7.03543,23.141091 6.31831,18.934973 7.81778,22.523694 9.19086,21.996795 z m 47.38123,-20.72721 c 1.08579,-1.380356 1.69336,-2.964084 1.35016,-3.519395 -0.3432,-0.555311 -1.2027,-1.009656 -1.91,-1.009656 -0.7073,0 -2.05208,0.846516 -2.98841,1.881146 -1.57711,1.742683 -1.58183,2.001729 -0.0642,3.519395 1.51766,1.517666 1.78356,1.45352 3.61241,-0.87149 z M 31.782794,30.284866 c 0.471805,0 1.147507,-0.754894 1.50156,-1.677541 0.363599,-0.947523 -0.02191,-2.343182 -0.885868,-3.207143 -1.112255,-1.112255 -1.829673,-1.22953 -2.629385,-0.429818 -0.799711,0.799711 -0.79206,1.674769 0.02804,3.207143 0.620305,1.159047 1.513848,2.107359 1.985653,2.107359 z"
       id="path75343" />
  </g>
</svg>
